<?xml version="1.0" encoding="iso-8859-1"?>
<!-- Uploaded to: SVG Repo, www.svgrepo.com, Generator: SVG Repo Mixer Tools -->
<svg height="800px" width="800px" version="1.1" id="Capa_1" xmlns="http://www.w3.org/2000/svg" xmlns:xlink="http://www.w3.org/1999/xlink" 
	 viewBox="0 0 369.946 369.946" xml:space="preserve">
<g>
	<path style="fill:#616670;" d="M184.973,0C82.981,0,0,82.975,0,184.973s82.981,184.973,184.973,184.973
		s184.973-82.975,184.973-184.973S286.965,0,184.973,0z M176.894,281.821c-9.78,0-16.48-7.542-16.48-17.316
		c0-10.329,6.981-17.596,16.761-17.596c9.774,0,16.48,7.268,16.48,17.596C193.655,274.285,187.228,281.821,176.894,281.821z
		 M203.995,177.079c-12.292,14.523-16.761,26.815-15.92,41.058l0.28,7.262h-21.791l-0.555-7.262
		c-1.677-15.084,3.353-31.565,17.316-48.326c12.566-14.798,19.547-25.693,19.547-38.266c0-14.249-8.938-23.742-26.535-24.023
		c-10.06,0-21.23,3.353-28.211,8.658l-6.707-17.596c9.219-6.707,25.138-11.176,39.942-11.176c32.126,0,46.643,19.834,46.643,41.058
		C228.012,147.471,217.403,161.159,203.995,177.079z"/>
</g>
</svg>